# xmcd CD database file
#
# Track frame offsets:
#	182
#	17677
#	56840
#	101222
#	134510
#	155662
#
# Disc length: 2428 seconds
#
# Revision: 3
# Processed by: cddbd v1.5.2PL0 Copyright (c) Steve Scherf et al.
# Submitted via: CDex 1.70beta2
#
DISCID=52097a06
DTITLE=Various Artist - Jazz-a-Live
DYEAR=1994
DGENRE=Jazz
TTITLE0=Paul Horn - Nature boy
TTITLE1=Stan Getz - Kali-Au
TTITLE2=Chick Corea and Lionel Hampton - Sea Breeze
TTITLE3=Lionel Hampton - It don't mean a thing (If it ain't got that swing)
TTITLE4=Ahmad Jamal and Gary Burton - Tones for Joan's bones
TTITLE5=Ahmad Jamal - Autumn leaves
EXTD=YEAR: 1994
EXTT0=
EXTT1=
EXTT2=
EXTT3=
EXTT4=
EXTT5=
PLAYORDER=
